# xmcd
#
# Track frame offsets:
# 150
# 14629
# 29409
# 45788
# 60025
# 80498
# 94545
# 111639
# 125332
# 142162
# 156829
# 173185
#
# Disc length: 2477 seconds
#
#
# Revision: 0
# Processed by: cddbd v1.5.1PL2 Copyright (c) Steve Scherf et al.
# Submitted via: FreeRIP 2.945 
#
DISCID=9709ab0c
DTITLE=HASAN YILMAZ - Yalan Mý
DYEAR=2006
DGENRE=Other
TTITLE0=Yalan Mý
TTITLE1=Aðýr Abi
TTITLE2=A Kuzum
TTITLE3=Bay Bay
TTITLE4=Vurgundur
TTITLE5=Seviyorum Harbiden
TTITLE6=Cezayir
TTITLE7=Dýr Dýr
TTITLE8=Koca Adam Aðlýyor
TTITLE9=Doðdu
TTITLE10=Havalanma
TTITLE11=Alsana
EXTD=
EXTT0=
EXTT1=
EXTT2=
EXTT3=
EXTT4=
EXTT5=
EXTT6=
EXTT7=
EXTT8=
EXTT9=
EXTT10=
EXTT11=
PLAYORDER=
